# xmcd
#
# Track frame offsets: 
#        150
#        13379
#        27367
#        42114
#        59552
#        79352
#        99187
#        126075
#        134925
#        164475
#        184979
#
# Disc length: 2650 seconds
#
# Revision: 0
# Processed by: cddbd v1.5.2PL0 Copyright (c) Steve Scherf et al.
# Submitted via: ExactAudioCopy v0.99pb4
#
DISCID=a00a580b
DTITLE=Red Clay River - Too Poor to Die
DYEAR=2007
DGENRE=Country
TTITLE0=Rattlesnake Mountain
TTITLE1=Made Me Do It
TTITLE2=Satisfied
TTITLE3=River Bend
TTITLE4=Spiritual
TTITLE5=We Don't Like No Company Men
TTITLE6=People's War
TTITLE7=Moonshiner
TTITLE8=Too Poor to Die
TTITLE9=Never Able to Rest
TTITLE10=Coffin Hollow
EXTD=
EXTT0=
EXTT1=
EXTT2=
EXTT3=
EXTT4=
EXTT5=
EXTT6=
EXTT7=
EXTT8=
EXTT9=
EXTT10=
PLAYORDER=
